<?xml version="1.0" encoding="UTF-8" standalone="no" ?>
<!DOCTYPE svg PUBLIC "-//W3C//DTD SVG 1.1//EN" "http://www.w3.org/Graphics/SVG/1.1/DTD/svg11.dtd">
<svg xmlns="http://www.w3.org/2000/svg" xmlns:xlink="http://www.w3.org/1999/xlink" version="1.1" width="1080" height="1080" viewBox="0 0 1080 1080" xml:space="preserve">
<desc>Created with Fabric.js 5.2.4</desc>
<defs>
</defs>
<g transform="matrix(1 0 0 1 540 540)" id="86e9986d-12b3-406c-a49c-2da16673a7b7"  >
</g>
<g transform="matrix(1 0 0 1 540 540)" id="a5e4c083-386c-4574-8b12-267bc3382d10"  >
<rect style="stroke: none; stroke-width: 1; stroke-dasharray: none; stroke-linecap: butt; stroke-dashoffset: 0; stroke-linejoin: miter; stroke-miterlimit: 4; fill: rgb(255,255,255); fill-rule: nonzero; opacity: 1; visibility: hidden;" vector-effect="non-scaling-stroke"  x="-540" y="-540" rx="0" ry="0" width="1080" height="1080" />
</g>
<g transform="matrix(6.78 0 0 6.78 1062.29 1112.22)"  >
<g style="" vector-effect="non-scaling-stroke"   >
		<g transform="matrix(0.13 0 0 -0.13 89.02 -141.65)"  >
<path style="stroke: none; stroke-width: 1; stroke-dasharray: none; stroke-linecap: butt; stroke-dashoffset: 0; stroke-linejoin: miter; stroke-miterlimit: 4; fill: rgb(14,0,0); fill-rule: nonzero; opacity: 1;" vector-effect="non-scaling-stroke"  transform=" translate(-2153.34, -2581.17)" d="M 2155 2613 C 2160 2598 2159 2597 2149 2608 C 2142 2614 2133 2620 2129 2620 C 2118 2620 2130 2547 2143 2535 C 2149 2528 2151 2535 2147 2554 L 2142 2584 L 2162 2559 L 2182 2535 L 2176 2569 C 2173 2587 2170 2609 2170 2616 C 2170 2624 2165 2630 2159 2630 C 2153 2630 2151 2623 2155 2613 z" stroke-linecap="round" />
</g>
		<g transform="matrix(0.13 0 0 -0.13 100.23 -142.09)"  >
<path style="stroke: none; stroke-width: 1; stroke-dasharray: none; stroke-linecap: butt; stroke-dashoffset: 0; stroke-linejoin: miter; stroke-miterlimit: 4; fill: rgb(14,0,0); fill-rule: nonzero; opacity: 1;" vector-effect="non-scaling-stroke"  transform=" translate(-2237.25, -2584.58)" d="M 2217 2588 C 2211 2541 2216 2527 2230 2550 C 2237 2560 2240 2561 2240 2553 C 2240 2546 2245 2540 2250 2540 C 2256 2540 2260 2560 2260 2585 C 2260 2622 2257 2630 2241 2630 C 2227 2630 2221 2620 2217 2588 z" stroke-linecap="round" />
</g>
		<g transform="matrix(0.13 0 0 -0.13 112.98 -138.91)"  >
<path style="stroke: none; stroke-width: 1; stroke-dasharray: none; stroke-linecap: butt; stroke-dashoffset: 0; stroke-linejoin: miter; stroke-miterlimit: 4; fill: rgb(14,0,0); fill-rule: nonzero; opacity: 1;" vector-effect="non-scaling-stroke"  transform=" translate(-2333.4, -2560.58)" d="M 2301 2579 C 2287 2540 2287 2530 2300 2530 C 2306 2530 2310 2540 2311 2553 C 2312 2574 2312 2574 2319 2550 C 2326 2526 2326 2526 2338 2545 C 2349 2563 2350 2562 2344 2538 C 2337 2504 2347 2501 2359 2533 C 2379 2587 2381 2600 2369 2600 C 2363 2600 2351 2592 2343 2583 C 2330 2566 2329 2567 2335 2588 C 2345 2623 2314 2615 2301 2579 z" stroke-linecap="round" />
</g>
		<g transform="matrix(0.13 0 0 -0.13 77.67 -138.15)"  >
<path style="stroke: none; stroke-width: 1; stroke-dasharray: none; stroke-linecap: butt; stroke-dashoffset: 0; stroke-linejoin: miter; stroke-miterlimit: 4; fill: rgb(14,0,0); fill-rule: nonzero; opacity: 1;" vector-effect="non-scaling-stroke"  transform=" translate(-2068.35, -2555.05)" d="M 2038 2594 C 2030 2586 2061 2510 2072 2510 C 2077 2510 2078 2520 2075 2533 C 2068 2555 2068 2555 2084 2535 C 2096 2519 2099 2518 2100 2531 C 2100 2540 2097 2550 2093 2554 C 2088 2558 2084 2566 2084 2571 C 2083 2576 2082 2585 2081 2590 C 2080 2601 2047 2604 2038 2594 z" stroke-linecap="round" />
</g>
		<g transform="matrix(0.13 0 0 -0.13 67.22 -133.86)"  >
<path style="stroke: none; stroke-width: 1; stroke-dasharray: none; stroke-linecap: butt; stroke-dashoffset: 0; stroke-linejoin: miter; stroke-miterlimit: 4; fill: rgb(14,0,0); fill-rule: nonzero; opacity: 1;" vector-effect="non-scaling-stroke"  transform=" translate(-1990.07, -2522.74)" d="M 1966 2555 C 1948 2541 1948 2540 1975 2504 C 1999 2472 2004 2470 2018 2483 C 2031 2497 2030 2502 2011 2534 C 1998 2554 1988 2570 1987 2570 C 1986 2570 1976 2563 1966 2555 z" stroke-linecap="round" />
</g>
		<g transform="matrix(0.13 0 0 -0.13 124.61 -133.6)"  >
<path style="stroke: none; stroke-width: 1; stroke-dasharray: none; stroke-linecap: butt; stroke-dashoffset: 0; stroke-linejoin: miter; stroke-miterlimit: 4; fill: rgb(14,0,0); fill-rule: nonzero; opacity: 1;" vector-effect="non-scaling-stroke"  transform=" translate(-2420.42, -2521)" d="M 2402 2534 C 2378 2498 2380 2480 2407 2480 C 2416 2480 2420 2486 2416 2495 C 2413 2504 2417 2510 2427 2510 C 2440 2510 2441 2512 2429 2527 C 2417 2542 2417 2543 2432 2537 C 2456 2528 2465 2547 2443 2559 C 2428 2566 2420 2562 2402 2534 z" stroke-linecap="round" />
</g>
		<g transform="matrix(0.13 0 0 -0.13 132.45 -126.47)"  >
<path style="stroke: none; stroke-width: 1; stroke-dasharray: none; stroke-linecap: butt; stroke-dashoffset: 0; stroke-linejoin: miter; stroke-miterlimit: 4; fill: rgb(14,0,0); fill-rule: nonzero; opacity: 1;" vector-effect="non-scaling-stroke"  transform=" translate(-2479.43, -2467.43)" d="M 2457 2481 C 2426 2451 2432 2430 2463 2457 C 2482 2475 2483 2474 2471 2452 C 2451 2415 2463 2417 2501 2457 C 2520 2477 2528 2490 2518 2487 C 2506 2483 2503 2485 2507 2496 C 2516 2519 2487 2511 2457 2481 z" stroke-linecap="round" />
</g>
		<g transform="matrix(0.13 0 0 -0.13 58.87 -125.56)"  >
<path style="stroke: none; stroke-width: 1; stroke-dasharray: none; stroke-linecap: butt; stroke-dashoffset: 0; stroke-linejoin: miter; stroke-miterlimit: 4; fill: rgb(14,0,0); fill-rule: nonzero; opacity: 1;" vector-effect="non-scaling-stroke"  transform=" translate(-1927.57, -2460.79)" d="M 1891 2487 C 1883 2477 1887 2467 1910 2445 C 1938 2418 1941 2417 1957 2433 C 1973 2449 1972 2451 1950 2475 C 1924 2503 1908 2506 1891 2487 z" stroke-linecap="round" />
</g>
		<g transform="matrix(0.13 0 0 -0.13 95.4 -71.57)"  >
<path style="stroke: none; stroke-width: 1; stroke-dasharray: none; stroke-linecap: butt; stroke-dashoffset: 0; stroke-linejoin: miter; stroke-miterlimit: 4; fill: rgb(14,0,0); fill-rule: nonzero; opacity: 1;" vector-effect="non-scaling-stroke"  transform=" translate(-2210, -2045.76)" d="M 2153 2480 C 2095 2468 2059 2448 2017 2401 C 1975 2355 1960 2312 1953 2214 C 1943 2082 1968 2034 2101 1928 L 2135 1901 L 1983 1901 L 1830 1900 L 1830 1824 L 1830 1749 L 1985 1752 L 2139 1755 L 2133 1698 C 2129 1659 2131 1636 2139 1626 C 2157 1604 2205 1597 2246 1610 L 2281 1622 L 2279 1687 L 2277 1753 L 2433 1751 L 2590 1749 L 2590 1824 L 2590 1899 L 2433 1902 L 2277 1905 L 2346 1960 C 2438 2033 2465 2086 2465 2190 C 2464 2335 2399 2442 2289 2474 C 2232 2491 2216 2492 2153 2480 z M 2306 2446 C 2357 2422 2392 2385 2425 2320 C 2447 2277 2457 2160 2441 2134 C 2432 2119 2431 2123 2436 2156 C 2449 2241 2390 2381 2325 2424 C 2310 2434 2282 2448 2262 2455 C 2241 2463 2232 2469 2240 2469 C 2248 2470 2278 2459 2306 2446 z M 2285 2420 C 2348 2381 2391 2298 2409 2181 C 2419 2115 2419 2104 2402 2076 L 2384 2045 L 2264 2048 C 2199 2049 2123 2056 2096 2063 C 2036 2077 2016 2106 2000 2199 C 1988 2274 2002 2335 2043 2378 C 2106 2446 2213 2464 2285 2420 z M 2004 2085 C 2021 2043 2023 2041 2068 2037 L 2115 2034 L 2062 2032 C 2010 2030 2009 2030 1993 2068 C 1984 2088 1976 2137 1974 2175 L 1971 2245 L 1979 2187 C 1984 2156 1995 2110 2004 2085 z M 2345 1987 C 2329 1975 2303 1953 2288 1939 L 2261 1913 L 2257 1939 C 2254 1962 2253 1961 2251 1933 C 2250 1901 2249 1900 2205 1900 C 2161 1900 2160 1901 2159 1933 C 2158 1955 2156 1958 2153 1943 C 2149 1923 2146 1923 2094 1962 C 2064 1985 2040 2004 2040 2006 C 2040 2008 2115 2010 2208 2009 L 2375 2009 L 2345 1987 z M 1884 1855 C 1887 1847 1885 1830 1881 1818 L 1872 1795 L 1862 1820 C 1852 1846 1856 1870 1870 1870 C 1874 1870 1880 1863 1884 1855 z M 1968 1842 C 1970 1829 1965 1817 1956 1814 C 1947 1811 1940 1802 1940 1794 C 1940 1786 1936 1780 1930 1780 C 1925 1780 1920 1801 1920 1826 C 1920 1867 1922 1871 1943 1868 C 1957 1866 1966 1857 1968 1842 z M 2010 1825 C 2010 1800 2006 1780 2000 1780 C 1995 1780 1990 1800 1990 1825 C 1990 1850 1995 1870 2000 1870 C 2006 1870 2010 1850 2010 1825 z M 2061 1858 C 2061 1848 2063 1848 2067 1858 C 2078 1885 2090 1867 2090 1823 C 2089 1779 2088 1776 2075 1794 C 2062 1811 2060 1812 2060 1797 C 2060 1788 2056 1780 2050 1780 C 2045 1780 2040 1800 2040 1825 C 2040 1850 2045 1870 2050 1870 C 2056 1870 2060 1864 2061 1858 z M 2158 1828 C 2156 1793 2151 1785 2135 1785 C 2119 1785 2114 1793 2112 1828 C 2109 1867 2110 1870 2135 1870 C 2160 1870 2161 1867 2158 1828 z M 2270 1840 C 2270 1824 2266 1810 2260 1810 C 2255 1810 2250 1803 2250 1794 C 2250 1785 2244 1780 2238 1782 C 2231 1785 2224 1805 2223 1828 C 2222 1866 2224 1870 2246 1870 C 2266 1870 2270 1865 2270 1840 z M 2338 1828 C 2335 1782 2307 1762 2297 1799 C 2288 1833 2301 1870 2322 1870 C 2338 1870 2341 1864 2338 1828 z M 2391 1858 C 2391 1848 2393 1848 2397 1858 C 2408 1885 2420 1868 2420 1825 C 2420 1800 2416 1780 2410 1780 C 2405 1780 2400 1786 2400 1794 C 2400 1802 2396 1812 2390 1815 C 2385 1818 2383 1815 2386 1807 C 2389 1799 2387 1789 2381 1785 C 2374 1781 2370 1795 2370 1824 C 2370 1849 2375 1870 2380 1870 C 2386 1870 2390 1864 2391 1858 z M 2488 1828 C 2486 1793 2481 1785 2465 1785 C 2449 1785 2444 1793 2442 1828 C 2439 1867 2440 1870 2465 1870 C 2490 1870 2491 1867 2488 1828 z M 2563 1858 C 2570 1838 2552 1798 2538 1802 C 2531 1805 2524 1821 2522 1838 C 2519 1864 2522 1870 2538 1870 C 2549 1870 2560 1864 2563 1858 z M 2223 1753 C 2225 1748 2225 1726 2222 1702 C 2219 1670 2212 1656 2196 1649 C 2179 1642 2181 1641 2210 1643 L 2245 1645 L 2242 1703 C 2241 1741 2243 1759 2250 1755 C 2255 1752 2260 1722 2260 1689 C 2260 1625 2259 1624 2190 1630 C 2153 1633 2149 1641 2156 1703 C 2162 1757 2164 1760 2191 1760 C 2206 1760 2221 1757 2223 1753 z" stroke-linecap="round" />
</g>
		<g transform="matrix(0.13 0 0 -0.13 96.26 -95.56)"  >
<path style="stroke: none; stroke-width: 1; stroke-dasharray: none; stroke-linecap: butt; stroke-dashoffset: 0; stroke-linejoin: miter; stroke-miterlimit: 4; fill: rgb(14,0,0); fill-rule: nonzero; opacity: 1;" vector-effect="non-scaling-stroke"  transform=" translate(-2209.93, -2233.81)" d="M 2179 2334 C 2171 2325 2148 2307 2128 2294 C 2087 2268 2081 2246 2105 2214 C 2113 2204 2120 2183 2120 2169 C 2120 2131 2137 2122 2207 2119 C 2277 2116 2300 2129 2300 2169 C 2300 2184 2307 2205 2315 2216 C 2337 2245 2333 2268 2303 2287 C 2287 2296 2262 2314 2247 2327 C 2213 2354 2197 2356 2179 2334 z M 2220 2315 C 2220 2291 2258 2260 2287 2260 L 2314 2260 L 2287 2232 C 2264 2209 2261 2198 2266 2171 L 2273 2138 L 2241 2154 C 2213 2169 2207 2169 2180 2155 C 2141 2135 2140 2135 2151 2172 C 2159 2200 2156 2208 2133 2232 L 2106 2260 L 2133 2260 C 2162 2260 2200 2291 2200 2315 C 2200 2323 2205 2330 2210 2330 C 2216 2330 2220 2323 2220 2315 z" stroke-linecap="round" />
</g>
		<g transform="matrix(0.13 0 0 -0.13 95.95 -60)"  >
<path style="stroke: none; stroke-width: 1; stroke-dasharray: none; stroke-linecap: butt; stroke-dashoffset: 0; stroke-linejoin: miter; stroke-miterlimit: 4; fill: rgb(14,0,0); fill-rule: nonzero; opacity: 1;" vector-effect="non-scaling-stroke"  transform=" translate(-2205.48, -1969.55)" d="M 2172 1979 C 2180 1955 2207 1945 2224 1959 C 2233 1967 2240 1977 2240 1982 C 2240 1988 2233 1987 2224 1979 C 2211 1969 2205 1969 2188 1979 C 2172 1989 2169 1989 2172 1979 z" stroke-linecap="round" />
</g>
		<g transform="matrix(0.13 0 0 -0.13 -102.07 -108.71)"  >
<path style="stroke: none; stroke-width: 1; stroke-dasharray: none; stroke-linecap: butt; stroke-dashoffset: 0; stroke-linejoin: miter; stroke-miterlimit: 4; fill: rgb(14,0,0); fill-rule: nonzero; opacity: 1;" vector-effect="non-scaling-stroke"  transform=" translate(-721.78, -2331.63)" d="M 767 2459 C 747 2448 716 2421 700 2398 C 652 2333 605 2157 644 2189 C 651 2195 661 2224 664 2252 C 672 2308 704 2393 725 2410 C 732 2416 729 2402 717 2379 C 696 2337 683 2252 693 2226 C 697 2217 706 2213 713 2216 C 723 2219 727 2240 727 2288 C 727 2329 734 2369 744 2390 C 753 2409 758 2417 756 2408 C 742 2358 738 2315 744 2275 C 750 2239 757 2227 780 2215 C 820 2194 820 2195 796 2243 C 766 2304 767 2403 798 2448 C 825 2485 820 2487 767 2459 z" stroke-linecap="round" />
</g>
		<g transform="matrix(0.13 0 0 -0.13 -124.28 -110.21)"  >
<path style="stroke: none; stroke-width: 1; stroke-dasharray: none; stroke-linecap: butt; stroke-dashoffset: 0; stroke-linejoin: miter; stroke-miterlimit: 4; fill: rgb(14,0,0); fill-rule: nonzero; opacity: 1;" vector-effect="non-scaling-stroke"  transform=" translate(-555, -2344)" d="M 470 2344 L 470 2240 L 505 2240 C 538 2240 540 2242 540 2273 C 540 2304 543 2307 570 2307 C 610 2307 640 2335 640 2375 C 640 2421 616 2437 538 2443 L 470 2448 L 470 2344 z M 569 2391 C 586 2380 576 2350 555 2350 C 546 2350 540 2359 540 2375 C 540 2402 546 2405 569 2391 z" stroke-linecap="round" />
</g>
		<g transform="matrix(0.13 0 0 -0.13 -72.33 -110.41)"  >
<path style="stroke: none; stroke-width: 1; stroke-dasharray: none; stroke-linecap: butt; stroke-dashoffset: 0; stroke-linejoin: miter; stroke-miterlimit: 4; fill: rgb(14,0,0); fill-rule: nonzero; opacity: 1;" vector-effect="non-scaling-stroke"  transform=" translate(-945, -2345.5)" d="M 848 2345 L 845 2240 L 877 2240 C 908 2240 909 2241 912 2293 L 915 2345 L 945 2293 C 972 2245 978 2240 1010 2240 L 1045 2240 L 1043 2342 L 1041 2445 L 1011 2448 L 980 2451 L 980 2393 L 980 2336 L 944 2393 C 914 2441 904 2450 880 2450 L 851 2450 L 848 2345 z" stroke-linecap="round" />
</g>
		<g transform="matrix(0.13 0 0 -0.13 -37.04 -110.01)"  >
<path style="stroke: none; stroke-width: 1; stroke-dasharray: none; stroke-linecap: butt; stroke-dashoffset: 0; stroke-linejoin: miter; stroke-miterlimit: 4; fill: rgb(14,0,0); fill-rule: nonzero; opacity: 1;" vector-effect="non-scaling-stroke"  transform=" translate(-1209.7, -2342.5)" d="M 1165 2437 C 1104 2409 1090 2318 1139 2269 C 1201 2208 1310 2244 1310 2325 L 1310 2361 L 1258 2358 C 1213 2355 1205 2352 1205 2335 C 1205 2321 1211 2315 1228 2316 C 1256 2317 1251 2296 1223 2292 C 1180 2286 1154 2343 1186 2375 C 1201 2390 1234 2389 1293 2373 C 1316 2367 1314 2384 1288 2415 C 1260 2446 1207 2456 1165 2437 z" stroke-linecap="round" />
</g>
		<g transform="matrix(0.13 0 0 -0.13 51.84 -117.96)"  >
<path style="stroke: none; stroke-width: 1; stroke-dasharray: none; stroke-linecap: butt; stroke-dashoffset: 0; stroke-linejoin: miter; stroke-miterlimit: 4; fill: rgb(14,0,0); fill-rule: nonzero; opacity: 1;" vector-effect="non-scaling-stroke"  transform=" translate(-1874.87, -2403.9)" d="M 1841 2421 C 1827 2395 1827 2387 1843 2393 C 1849 2395 1867 2390 1882 2382 C 1897 2373 1913 2370 1917 2374 C 1921 2379 1919 2385 1911 2388 C 1903 2391 1886 2404 1874 2417 C 1852 2441 1851 2441 1841 2421 z" stroke-linecap="round" />
</g>
		<g transform="matrix(0.13 0 0 -0.13 140.16 -118.45)"  >
<path style="stroke: none; stroke-width: 1; stroke-dasharray: none; stroke-linecap: butt; stroke-dashoffset: 0; stroke-linejoin: miter; stroke-miterlimit: 4; fill: rgb(14,0,0); fill-rule: nonzero; opacity: 1;" vector-effect="non-scaling-stroke"  transform=" translate(-2537.24, -2407.56)" d="M 2545 2430 C 2548 2425 2537 2414 2520 2405 C 2503 2396 2492 2385 2496 2379 C 2500 2373 2511 2375 2526 2384 C 2539 2393 2556 2400 2565 2400 C 2583 2400 2584 2412 2568 2428 C 2554 2442 2536 2444 2545 2430 z" stroke-linecap="round" />
</g>
		<g transform="matrix(0.13 0 0 -0.13 46.55 -104.72)"  >
<path style="stroke: none; stroke-width: 1; stroke-dasharray: none; stroke-linecap: butt; stroke-dashoffset: 0; stroke-linejoin: miter; stroke-miterlimit: 4; fill: rgb(14,0,0); fill-rule: nonzero; opacity: 1;" vector-effect="non-scaling-stroke"  transform=" translate(-1834.7, -2304.36)" d="M 1810 2313 C 1810 2282 1821 2268 1848 2264 C 1867 2261 1862 2282 1835 2315 L 1811 2345 L 1810 2313 z" stroke-linecap="round" />
</g>
		<g transform="matrix(0.13 0 0 -0.13 145.14 -97.42)"  >
<path style="stroke: none; stroke-width: 1; stroke-dasharray: none; stroke-linecap: butt; stroke-dashoffset: 0; stroke-linejoin: miter; stroke-miterlimit: 4; fill: rgb(14,0,0); fill-rule: nonzero; opacity: 1;" vector-effect="non-scaling-stroke"  transform=" translate(-2574.91, -2248.3)" d="M 2605 2320 C 2591 2304 2586 2286 2587 2255 L 2588 2212 L 2560 2223 C 2544 2229 2528 2231 2524 2227 C 2512 2215 2542 2189 2564 2192 C 2578 2194 2589 2187 2597 2170 C 2608 2147 2609 2148 2604 2185 C 2601 2207 2597 2236 2594 2248 C 2591 2261 2593 2269 2598 2266 C 2614 2257 2632 2287 2628 2316 L 2625 2342 L 2605 2320 z" stroke-linecap="round" />
</g>
		<g transform="matrix(0.13 0 0 -0.13 55.26 -100.69)"  >
<path style="stroke: none; stroke-width: 1; stroke-dasharray: none; stroke-linecap: butt; stroke-dashoffset: 0; stroke-linejoin: miter; stroke-miterlimit: 4; fill: rgb(14,0,0); fill-rule: nonzero; opacity: 1;" vector-effect="non-scaling-stroke"  transform=" translate(-1900.16, -2274.55)" d="M 1888 2289 C 1868 2278 1864 2250 1881 2250 C 1901 2250 1930 2271 1930 2285 C 1930 2302 1913 2304 1888 2289 z" stroke-linecap="round" />
</g>
		<g transform="matrix(0.13 0 0 -0.13 140.55 -100.71)"  >
<path style="stroke: none; stroke-width: 1; stroke-dasharray: none; stroke-linecap: butt; stroke-dashoffset: 0; stroke-linejoin: miter; stroke-miterlimit: 4; fill: rgb(14,0,0); fill-rule: nonzero; opacity: 1;" vector-effect="non-scaling-stroke"  transform=" translate(-2539.83, -2274.7)" d="M 2510 2287 C 2510 2268 2531 2250 2552 2250 C 2579 2250 2574 2279 2544 2290 C 2512 2303 2510 2303 2510 2287 z" stroke-linecap="round" />
</g>
		<g transform="matrix(0.13 0 0 -0.13 42.56 -94.75)"  >
<path style="stroke: none; stroke-width: 1; stroke-dasharray: none; stroke-linecap: butt; stroke-dashoffset: 0; stroke-linejoin: miter; stroke-miterlimit: 4; fill: rgb(14,0,0); fill-rule: nonzero; opacity: 1;" vector-effect="non-scaling-stroke"  transform=" translate(-1804.8, -2229.86)" d="M 1780 2249 C 1780 2229 1801 2200 1815 2200 C 1833 2200 1834 2214 1820 2241 C 1809 2261 1780 2267 1780 2249 z" stroke-linecap="round" />
</g>
		<g transform="matrix(0.13 0 0 -0.13 153.27 -94.75)"  >
<path style="stroke: none; stroke-width: 1; stroke-dasharray: none; stroke-linecap: butt; stroke-dashoffset: 0; stroke-linejoin: miter; stroke-miterlimit: 4; fill: rgb(14,0,0); fill-rule: nonzero; opacity: 1;" vector-effect="non-scaling-stroke"  transform=" translate(-2635.15, -2229.88)" d="M 2622 2248 C 2605 2231 2607 2200 2625 2200 C 2639 2200 2660 2229 2660 2249 C 2660 2264 2637 2263 2622 2248 z" stroke-linecap="round" />
</g>
		<g transform="matrix(0.13 0 0 -0.13 52.66 -92.95)"  >
<path style="stroke: none; stroke-width: 1; stroke-dasharray: none; stroke-linecap: butt; stroke-dashoffset: 0; stroke-linejoin: miter; stroke-miterlimit: 4; fill: rgb(14,0,0); fill-rule: nonzero; opacity: 1;" vector-effect="non-scaling-stroke"  transform=" translate(-1880.86, -2216.48)" d="M 1843 2225 C 1845 2201 1850 2194 1871 2192 C 1897 2189 1929 2214 1916 2227 C 1912 2231 1896 2229 1880 2223 C 1854 2213 1851 2214 1846 2234 C 1844 2246 1842 2243 1843 2225 z" stroke-linecap="round" />
</g>
		<g transform="matrix(0.13 0 0 -0.13 -137.83 -70.69)"  >
<path style="stroke: none; stroke-width: 1; stroke-dasharray: none; stroke-linecap: butt; stroke-dashoffset: 0; stroke-linejoin: miter; stroke-miterlimit: 4; fill: rgb(14,0,0); fill-rule: nonzero; opacity: 1;" vector-effect="non-scaling-stroke"  transform=" translate(-454.08, -2046.5)" d="M 340 2046 L 340 1900 L 386 1900 L 432 1900 L 429 1948 C 426 1994 426 1995 452 1992 C 531 1982 592 2062 559 2133 C 542 2170 510 2183 423 2188 L 340 2193 L 340 2046 z M 522 2108 C 527 2081 521 2050 512 2050 C 508 2050 505 2068 505 2090 C 504 2133 515 2144 522 2108 z M 468 2111 C 491 2097 478 2065 447 2062 C 424 2059 420 2062 420 2083 C 420 2119 439 2130 468 2111 z M 420 2024 C 420 2018 411 2005 400 1995 C 380 1977 380 1978 380 2036 L 380 2095 L 400 2065 C 411 2049 420 2030 420 2024 z" stroke-linecap="round" />
</g>
		<g transform="matrix(0.13 0 0 -0.13 -100.15 -70.86)"  >
<path style="stroke: none; stroke-width: 1; stroke-dasharray: none; stroke-linecap: butt; stroke-dashoffset: 0; stroke-linejoin: miter; stroke-miterlimit: 4; fill: rgb(14,0,0); fill-rule: nonzero; opacity: 1;" vector-effect="non-scaling-stroke"  transform=" translate(-737.34, -2047.87)" d="M 663 2171 C 617 2142 597 2105 596 2050 C 595 1970 656 1907 733 1907 C 872 1907 929 2063 826 2159 C 790 2193 708 2199 663 2171 z M 801 2124 C 811 2115 824 2093 830 2075 C 861 1981 740 1909 669 1979 C 603 2046 657 2159 749 2146 C 767 2143 791 2133 801 2124 z" stroke-linecap="round" />
</g>
		<g transform="matrix(0.13 0 0 -0.13 -95.95 -78.41)"  >
<path style="stroke: none; stroke-width: 1; stroke-dasharray: none; stroke-linecap: butt; stroke-dashoffset: 0; stroke-linejoin: miter; stroke-miterlimit: 4; fill: rgb(14,0,0); fill-rule: nonzero; opacity: 1;" vector-effect="non-scaling-stroke"  transform=" translate(-765.93, -2107.63)" d="M 745 2120 C 736 2105 749 2090 771 2090 C 796 2090 796 2106 771 2120 C 758 2127 749 2127 745 2120 z" stroke-linecap="round" />
</g>
		<g transform="matrix(0.13 0 0 -0.13 -102.53 -65.93)"  >
<path style="stroke: none; stroke-width: 1; stroke-dasharray: none; stroke-linecap: butt; stroke-dashoffset: 0; stroke-linejoin: miter; stroke-miterlimit: 4; fill: rgb(14,0,0); fill-rule: nonzero; opacity: 1;" vector-effect="non-scaling-stroke"  transform=" translate(-717.5, -2013.38)" d="M 660 2042 C 660 2007 703 1970 742 1971 L 775 1972 L 744 1979 C 701 1990 690 1998 674 2034 C 662 2061 661 2062 660 2042 z" stroke-linecap="round" />
</g>
		<g transform="matrix(0.13 0 0 -0.13 -57.97 -70.41)"  >
<path style="stroke: none; stroke-width: 1; stroke-dasharray: none; stroke-linecap: butt; stroke-dashoffset: 0; stroke-linejoin: miter; stroke-miterlimit: 4; fill: rgb(14,0,0); fill-rule: nonzero; opacity: 1;" vector-effect="non-scaling-stroke"  transform=" translate(-1053.5, -2044.5)" d="M 920 2185 C 920 2182 919 2118 919 2043 L 919 1905 L 959 1902 L 1000 1899 L 1000 1977 L 1000 2055 L 1050 1978 L 1099 1900 L 1144 1900 L 1188 1900 L 1188 2045 L 1188 2190 L 1144 2190 L 1100 2190 L 1100 2113 L 1100 2035 L 1050 2113 C 1002 2188 1000 2190 960 2190 C 938 2190 920 2188 920 2185 z M 1021 2094 L 1053 2047 L 1027 2054 C 1007 2059 997 2055 982 2035 C 958 2004 950 2012 950 2066 C 950 2154 973 2163 1021 2094 z M 1148 2013 C 1144 1940 1124 1932 1086 1990 L 1060 2030 L 1085 2030 C 1099 2030 1114 2038 1120 2050 C 1140 2087 1151 2072 1148 2013 z" stroke-linecap="round" />
</g>
		<g transform="matrix(0.13 0 0 -0.13 -17.75 -70.72)"  >
<path style="stroke: none; stroke-width: 1; stroke-dasharray: none; stroke-linecap: butt; stroke-dashoffset: 0; stroke-linejoin: miter; stroke-miterlimit: 4; fill: rgb(14,0,0); fill-rule: nonzero; opacity: 1;" vector-effect="non-scaling-stroke"  transform=" translate(-1355.21, -2046.78)" d="M 1290 2172 C 1227 2138 1202 2051 1235 1974 C 1265 1901 1384 1880 1457 1936 C 1487 1959 1490 1966 1490 2013 L 1490 2065 L 1420 2067 L 1350 2068 L 1350 2035 C 1350 2002 1351 2001 1385 2007 C 1421 2013 1434 1998 1404 1986 C 1352 1966 1310 1992 1310 2044 C 1310 2092 1365 2133 1385 2100 C 1394 2085 1490 2087 1490 2103 C 1490 2126 1458 2162 1424 2176 C 1378 2195 1331 2194 1290 2172 z" stroke-linecap="round" />
</g>
		<g transform="matrix(0.13 0 0 -0.13 42.94 -84.19)"  >
<path style="stroke: none; stroke-width: 1; stroke-dasharray: none; stroke-linecap: butt; stroke-dashoffset: 0; stroke-linejoin: miter; stroke-miterlimit: 4; fill: rgb(14,0,0); fill-rule: nonzero; opacity: 1;" vector-effect="non-scaling-stroke"  transform=" translate(-1807.75, -2150.44)" d="M 1830 2163 C 1830 2138 1829 2137 1811 2154 C 1800 2164 1787 2170 1781 2169 C 1767 2164 1790 2118 1809 2112 C 1818 2109 1820 2112 1814 2121 C 1808 2132 1809 2133 1821 2123 C 1834 2113 1836 2117 1838 2150 C 1840 2172 1838 2190 1835 2190 C 1832 2190 1830 2178 1830 2163 z" stroke-linecap="round" />
</g>
		<g transform="matrix(0.13 0 0 -0.13 52.62 -82.86)"  >
<path style="stroke: none; stroke-width: 1; stroke-dasharray: none; stroke-linecap: butt; stroke-dashoffset: 0; stroke-linejoin: miter; stroke-miterlimit: 4; fill: rgb(14,0,0); fill-rule: nonzero; opacity: 1;" vector-effect="non-scaling-stroke"  transform=" translate(-1880.32, -2140.68)" d="M 1869 2151 C 1849 2135 1847 2129 1858 2118 C 1869 2107 1875 2109 1891 2129 C 1911 2154 1915 2170 1901 2170 C 1896 2170 1882 2161 1869 2151 z" stroke-linecap="round" />
</g>
		<g transform="matrix(0.13 0 0 -0.13 147.6 -78.15)"  >
<path style="stroke: none; stroke-width: 1; stroke-dasharray: none; stroke-linecap: butt; stroke-dashoffset: 0; stroke-linejoin: miter; stroke-miterlimit: 4; fill: rgb(14,0,0); fill-rule: nonzero; opacity: 1;" vector-effect="non-scaling-stroke"  transform=" translate(-2593.55, -2104.48)" d="M 2530 2157 C 2530 2141 2562 2110 2578 2110 C 2585 2110 2590 2101 2590 2091 C 2590 2040 2629 2021 2650 2061 C 2665 2088 2656 2096 2625 2082 C 2602 2071 2600 2072 2600 2096 C 2600 2110 2589 2132 2575 2145 C 2548 2173 2530 2177 2530 2157 z" stroke-linecap="round" />
</g>
		<g transform="matrix(0.13 0 0 -0.13 153.29 -82.71)"  >
<path style="stroke: none; stroke-width: 1; stroke-dasharray: none; stroke-linecap: butt; stroke-dashoffset: 0; stroke-linejoin: miter; stroke-miterlimit: 4; fill: rgb(14,0,0); fill-rule: nonzero; opacity: 1;" vector-effect="non-scaling-stroke"  transform=" translate(-2635.28, -2139.57)" d="M 2626 2154 C 2607 2135 2605 2110 2623 2110 C 2642 2110 2660 2131 2660 2152 C 2660 2174 2647 2175 2626 2154 z" stroke-linecap="round" />
</g>
		<g transform="matrix(0.13 0 0 -0.13 48.07 -71.48)"  >
<path style="stroke: none; stroke-width: 1; stroke-dasharray: none; stroke-linecap: butt; stroke-dashoffset: 0; stroke-linejoin: miter; stroke-miterlimit: 4; fill: rgb(14,0,0); fill-rule: nonzero; opacity: 1;" vector-effect="non-scaling-stroke"  transform=" translate(-1847.14, -2055)" d="M 1841 2082 C 1840 2061 1839 2060 1824 2074 C 1809 2089 1780 2096 1780 2084 C 1780 2081 1785 2070 1791 2058 C 1799 2043 1808 2040 1826 2044 C 1845 2049 1850 2047 1850 2030 C 1850 2019 1854 2010 1859 2010 C 1864 2010 1866 2020 1863 2033 C 1860 2045 1861 2052 1865 2048 C 1877 2037 1907 2057 1913 2080 C 1920 2106 1897 2107 1871 2081 C 1851 2061 1851 2061 1847 2083 C 1843 2104 1843 2104 1841 2082 z" stroke-linecap="round" />
</g>
		<g transform="matrix(0.13 0 0 -0.13 142.57 -71.48)"  >
<path style="stroke: none; stroke-width: 1; stroke-dasharray: none; stroke-linecap: butt; stroke-dashoffset: 0; stroke-linejoin: miter; stroke-miterlimit: 4; fill: rgb(14,0,0); fill-rule: nonzero; opacity: 1;" vector-effect="non-scaling-stroke"  transform=" translate(-2555.13, -2054.94)" d="M 2520 2090 C 2520 2073 2560 2039 2572 2046 C 2579 2051 2581 2046 2578 2032 C 2574 2020 2576 2010 2581 2010 C 2598 2010 2590 2060 2570 2080 C 2549 2101 2520 2107 2520 2090 z" stroke-linecap="round" />
</g>
		<g transform="matrix(0.13 0 0 -0.13 39.33 -50.25)"  >
<path style="stroke: none; stroke-width: 1; stroke-dasharray: none; stroke-linecap: butt; stroke-dashoffset: 0; stroke-linejoin: miter; stroke-miterlimit: 4; fill: rgb(14,0,0); fill-rule: nonzero; opacity: 1;" vector-effect="non-scaling-stroke"  transform=" translate(-1782.5, -1895)" d="M 1680 1965 C 1680 1963 1687 1945 1696 1927 C 1711 1896 1711 1891 1696 1862 C 1687 1845 1680 1829 1680 1825 C 1680 1822 1712 1820 1750 1820 L 1820 1820 L 1820 1868 C 1820 1909 1824 1918 1852 1942 L 1885 1969 L 1783 1970 C 1726 1970 1680 1968 1680 1965 z M 1796 1906 C 1804 1874 1794 1860 1764 1860 C 1739 1860 1733 1880 1746 1914 C 1756 1939 1789 1933 1796 1906 z" stroke-linecap="round" />
</g>
		<g transform="matrix(0.13 0 0 -0.13 151.85 -50.21)"  >
<path style="stroke: none; stroke-width: 1; stroke-dasharray: none; stroke-linecap: butt; stroke-dashoffset: 0; stroke-linejoin: miter; stroke-miterlimit: 4; fill: rgb(14,0,0); fill-rule: nonzero; opacity: 1;" vector-effect="non-scaling-stroke"  transform=" translate(-2626.74, -1894.69)" d="M 2514 1953 C 2517 1945 2520 1932 2520 1924 C 2520 1915 2531 1910 2551 1910 L 2581 1910 L 2553 1936 L 2525 1962 L 2560 1942 C 2592 1923 2595 1916 2598 1870 L 2601 1820 L 2670 1820 L 2740 1820 L 2723 1855 C 2707 1888 2707 1892 2723 1925 C 2732 1945 2740 1963 2740 1966 C 2740 1969 2688 1970 2624 1969 C 2527 1968 2510 1965 2514 1953 z M 2676 1893 C 2678 1863 2675 1860 2649 1860 C 2622 1860 2620 1863 2620 1896 C 2620 1929 2622 1931 2647 1928 C 2670 1925 2675 1920 2676 1893 z" stroke-linecap="round" />
</g>
		<g transform="matrix(0.13 0 0 -0.13 50.9 -55.42)"  >
<path style="stroke: none; stroke-width: 1; stroke-dasharray: none; stroke-linecap: butt; stroke-dashoffset: 0; stroke-linejoin: miter; stroke-miterlimit: 4; fill: rgb(14,0,0); fill-rule: nonzero; opacity: 1;" vector-effect="non-scaling-stroke"  transform=" translate(-1867.5, -1935)" d="M 1865 1935 L 1835 1911 L 1868 1910 C 1896 1910 1900 1913 1900 1935 C 1900 1949 1899 1960 1898 1960 C 1896 1960 1882 1949 1865 1935 z" stroke-linecap="round" />
</g>
		<g transform="matrix(0.13 0 0 -0.13 -78.92 -40.73)"  >
<path style="stroke: none; stroke-width: 1; stroke-dasharray: none; stroke-linecap: butt; stroke-dashoffset: 0; stroke-linejoin: miter; stroke-miterlimit: 4; fill: rgb(14,0,0); fill-rule: nonzero; opacity: 1;" vector-effect="non-scaling-stroke"  transform=" translate(-905.22, -1824.13)" d="M 439 1859 C 416 1836 414 1807 436 1786 C 450 1772 506 1770 909 1770 C 1414 1770 1394 1768 1388 1832 C 1385 1862 1381 1865 1345 1871 C 1323 1875 1115 1878 882 1878 C 476 1879 458 1878 439 1859 z M 570 1840 C 570 1835 563 1830 555 1830 C 547 1830 540 1826 540 1820 C 540 1815 547 1813 555 1816 C 563 1820 570 1818 570 1812 C 570 1799 549 1791 533 1798 C 519 1802 515 1832 527 1843 C 537 1854 570 1851 570 1840 z M 614 1838 C 619 1828 621 1828 626 1838 C 636 1859 650 1851 650 1826 C 650 1798 630 1779 630 1807 C 629 1824 628 1824 615 1806 C 607 1795 599 1788 599 1791 C 587 1835 599 1870 614 1838 z M 714 1834 C 725 1805 720 1795 695 1795 C 668 1795 668 1795 676 1828 C 683 1853 705 1857 714 1834 z M 774 1838 C 779 1828 781 1828 786 1838 C 796 1859 810 1851 810 1825 C 810 1803 806 1800 780 1802 C 756 1804 750 1809 750 1827 C 750 1852 765 1858 774 1838 z M 880 1837 C 880 1821 846 1787 838 1795 C 835 1798 835 1812 838 1825 C 843 1851 880 1861 880 1837 z M 920 1819 C 920 1802 916 1791 910 1795 C 905 1798 900 1812 900 1826 C 900 1839 905 1850 910 1850 C 916 1850 920 1836 920 1819 z M 997 1834 C 1000 1826 996 1812 988 1804 C 976 1792 971 1792 955 1803 C 932 1820 941 1850 970 1850 C 981 1850 993 1843 997 1834 z M 1048 1838 C 1057 1829 1060 1829 1060 1838 C 1060 1845 1065 1850 1070 1850 C 1083 1850 1083 1803 1071 1795 C 1065 1792 1057 1798 1051 1807 C 1045 1817 1040 1819 1040 1813 C 1040 1788 1020 1800 1020 1825 C 1020 1852 1029 1857 1048 1838 z M 1138 1825 C 1138 1807 1132 1800 1119 1800 C 1105 1800 1100 1807 1100 1825 C 1100 1843 1105 1850 1119 1850 C 1132 1850 1138 1843 1138 1825 z M 1184 1838 C 1189 1828 1191 1828 1196 1838 C 1211 1870 1223 1835 1211 1791 C 1211 1788 1203 1795 1195 1806 C 1182 1824 1181 1824 1180 1807 C 1180 1779 1160 1798 1160 1826 C 1160 1851 1174 1859 1184 1838 z M 1260 1826 C 1260 1812 1256 1798 1250 1795 C 1244 1791 1240 1802 1240 1819 C 1240 1836 1245 1850 1250 1850 C 1256 1850 1260 1839 1260 1826 z M 1327 1834 C 1329 1828 1319 1815 1305 1806 C 1280 1790 1280 1790 1280 1820 C 1280 1847 1283 1851 1302 1848 C 1314 1846 1325 1840 1327 1834 z" stroke-linecap="round" />
</g>
		<g transform="matrix(0.13 0 0 -0.13 -77.34 1.04)"  >
<path style="stroke: none; stroke-width: 1; stroke-dasharray: none; stroke-linecap: butt; stroke-dashoffset: 0; stroke-linejoin: miter; stroke-miterlimit: 4; fill: rgb(14,0,0); fill-rule: nonzero; opacity: 1;" vector-effect="non-scaling-stroke"  transform=" translate(-906.28, -1511)" d="M 897 1546 C 893 1537 881 1530 869 1530 C 848 1530 848 1529 864 1511 C 873 1501 878 1486 875 1478 C 871 1468 878 1464 905 1464 C 935 1464 940 1467 940 1487 C 940 1500 945 1510 950 1510 C 956 1510 960 1515 960 1520 C 960 1526 953 1530 944 1530 C 935 1530 922 1537 915 1546 C 904 1562 903 1562 897 1546 z" stroke-linecap="round" />
</g>
		<g transform="matrix(0.13 0 0 -0.13 -93.99 8.26)"  >
<path style="stroke: none; stroke-width: 1; stroke-dasharray: none; stroke-linecap: butt; stroke-dashoffset: 0; stroke-linejoin: miter; stroke-miterlimit: 4; fill: rgb(14,0,0); fill-rule: nonzero; opacity: 1;" vector-effect="non-scaling-stroke"  transform=" translate(-780.59, -1457.45)" d="M 769 1476 C 749 1461 757 1431 780 1433 C 802 1434 812 1461 795 1476 C 787 1484 780 1484 769 1476 z" stroke-linecap="round" />
</g>
		<g transform="matrix(0.13 0 0 -0.13 -61.99 8.26)"  >
<path style="stroke: none; stroke-width: 1; stroke-dasharray: none; stroke-linecap: butt; stroke-dashoffset: 0; stroke-linejoin: miter; stroke-miterlimit: 4; fill: rgb(14,0,0); fill-rule: nonzero; opacity: 1;" vector-effect="non-scaling-stroke"  transform=" translate(-1020.59, -1457.45)" d="M 1009 1476 C 989 1461 997 1431 1020 1433 C 1042 1434 1052 1461 1035 1476 C 1027 1484 1020 1484 1009 1476 z" stroke-linecap="round" />
</g>
		<g transform="matrix(0.13 0 0 -0.13 -130.72 39.91)"  >
<path style="stroke: none; stroke-width: 1; stroke-dasharray: none; stroke-linecap: butt; stroke-dashoffset: 0; stroke-linejoin: miter; stroke-miterlimit: 4; fill: rgb(14,0,0); fill-rule: nonzero; opacity: 1;" vector-effect="non-scaling-stroke"  transform=" translate(-511.64, -1214.53)" d="M 246 1438 C 250 1425 260 1404 269 1391 C 287 1364 404 1306 527 1263 C 573 1248 610 1232 610 1228 C 610 1216 610 1216 415 1264 C 316 1288 233 1307 231 1304 C 223 1296 263 1249 285 1240 C 299 1235 377 1223 460 1213 C 542 1203 610 1193 610 1189 C 610 1186 566 1180 513 1176 C 459 1172 385 1167 347 1163 C 282 1157 280 1156 296 1139 C 319 1114 357 1115 497 1145 C 671 1183 657 1167 457 1101 C 399 1081 362 1064 366 1058 C 377 1040 444 1056 533 1098 C 581 1120 622 1135 625 1130 C 630 1122 554 1073 471 1030 C 455 1022 451 1015 458 1008 C 475 991 516 1008 576 1056 C 619 1091 634 1099 641 1089 C 646 1080 638 1066 612 1045 C 526 974 532 981 562 980 C 581 980 598 991 623 1020 L 657 1060 L 681 1034 C 706 1007 770 970 792 970 C 798 970 783 983 758 999 C 691 1042 657 1105 656 1189 L 655 1255 L 455 1357 C 345 1413 251 1459 247 1459 C 242 1460 242 1450 246 1438 z" stroke-linecap="round" />
</g>
		<g transform="matrix(0.13 0 0 -0.13 -27.95 40.03)"  >
<path style="stroke: none; stroke-width: 1; stroke-dasharray: none; stroke-linecap: butt; stroke-dashoffset: 0; stroke-linejoin: miter; stroke-miterlimit: 4; fill: rgb(14,0,0); fill-rule: nonzero; opacity: 1;" vector-effect="non-scaling-stroke"  transform=" translate(-1282.56, -1213.68)" d="M 1348 1359 L 1150 1261 L 1150 1203 C 1150 1109 1105 1030 1025 986 L 995 969 L 1024 975 C 1057 982 1107 1014 1130 1042 C 1145 1060 1147 1059 1178 1021 C 1202 991 1218 980 1238 980 C 1264 980 1262 983 1213 1026 C 1184 1051 1160 1078 1160 1086 C 1160 1094 1162 1100 1164 1100 C 1167 1100 1199 1078 1235 1050 C 1299 1001 1323 992 1347 1008 C 1354 1012 1323 1035 1269 1065 C 1220 1092 1180 1121 1180 1128 C 1180 1136 1183 1140 1188 1138 C 1329 1066 1420 1036 1433 1058 C 1437 1063 1393 1084 1332 1105 C 1181 1158 1177 1160 1182 1166 C 1185 1168 1240 1159 1304 1145 C 1369 1131 1436 1120 1453 1120 C 1483 1121 1529 1144 1519 1154 C 1517 1156 1442 1164 1352 1171 C 1263 1178 1190 1186 1190 1190 C 1190 1193 1262 1204 1351 1214 C 1492 1230 1515 1236 1541 1257 C 1573 1285 1581 1315 1553 1306 C 1510 1293 1210 1220 1200 1220 C 1167 1220 1202 1239 1288 1268 C 1429 1316 1510 1359 1537 1399 C 1560 1432 1567 1462 1553 1458 C 1548 1457 1456 1413 1348 1359 z" stroke-linecap="round" />
</g>
		<g transform="matrix(0.13 0 0 -0.13 -103.79 16.26)"  >
<path style="stroke: none; stroke-width: 1; stroke-dasharray: none; stroke-linecap: butt; stroke-dashoffset: 0; stroke-linejoin: miter; stroke-miterlimit: 4; fill: rgb(14,0,0); fill-rule: nonzero; opacity: 1;" vector-effect="non-scaling-stroke"  transform=" translate(-707, -1397.63)" d="M 696 1413 C 685 1401 690 1380 704 1380 C 723 1380 732 1407 715 1413 C 708 1416 699 1416 696 1413 z" stroke-linecap="round" />
</g>
		<g transform="matrix(0.13 0 0 -0.13 -78.28 57.75)"  >
<path style="stroke: none; stroke-width: 1; stroke-dasharray: none; stroke-linecap: butt; stroke-dashoffset: 0; stroke-linejoin: miter; stroke-miterlimit: 4; fill: rgb(14,0,0); fill-rule: nonzero; opacity: 1;" vector-effect="non-scaling-stroke"  transform=" translate(-902.81, -1078.37)" d="M 835 1408 C 747 1377 705 1306 706 1190 C 706 1103 722 1065 776 1023 C 855 962 853 969 849 852 L 845 746 L 870 740 C 884 737 909 737 925 740 L 955 746 L 955 853 L 955 959 L 1017 1017 C 1051 1049 1084 1088 1089 1103 C 1103 1139 1103 1234 1090 1282 C 1061 1385 940 1445 835 1408 z M 976 1364 C 1049 1329 1092 1194 1053 1121 L 1035 1087 L 900 1087 C 768 1087 765 1088 752 1111 C 732 1148 742 1274 767 1308 C 818 1377 902 1399 976 1364 z M 1025 1042 C 1019 1038 998 1022 978 1006 C 946 983 940 982 940 996 C 940 1006 938 1011 935 1008 C 932 1005 925 954 920 894 C 912 809 906 782 893 772 C 877 760 877 759 900 762 C 923 765 925 770 931 835 L 937 905 L 936 830 L 935 755 L 900 755 L 865 755 L 867 885 C 868 957 867 1007 864 997 C 859 981 856 981 831 1002 C 815 1015 794 1030 784 1037 C 769 1046 791 1049 900 1049 C 973 1050 1030 1046 1025 1042 z" stroke-linecap="round" />
</g>
		<g transform="matrix(0.13 0 0 -0.13 -78.1 66.71)"  >
<path style="stroke: none; stroke-width: 1; stroke-dasharray: none; stroke-linecap: butt; stroke-dashoffset: 0; stroke-linejoin: miter; stroke-miterlimit: 4; fill: rgb(14,0,0); fill-rule: nonzero; opacity: 1;" vector-effect="non-scaling-stroke"  transform=" translate(-900, -1019.22)" d="M 870 1032 C 870 1027 877 1017 885 1010 C 897 1000 903 1000 915 1010 C 923 1017 930 1027 930 1032 C 930 1038 923 1037 915 1030 C 903 1020 897 1020 885 1030 C 877 1037 870 1038 870 1032 z" stroke-linecap="round" />
</g>
		<g transform="matrix(0.13 0 0 -0.13 -52.37 16.27)"  >
<path style="stroke: none; stroke-width: 1; stroke-dasharray: none; stroke-linecap: butt; stroke-dashoffset: 0; stroke-linejoin: miter; stroke-miterlimit: 4; fill: rgb(14,0,0); fill-rule: nonzero; opacity: 1;" vector-effect="non-scaling-stroke"  transform=" translate(-1092.63, -1397.55)" d="M 1083 1413 C 1067 1407 1078 1380 1096 1380 C 1104 1380 1110 1386 1110 1394 C 1110 1412 1099 1419 1083 1413 z" stroke-linecap="round" />
</g>
		<g transform="matrix(0.13 0 0 -0.13 96.27 26.74)"  >
<path style="stroke: none; stroke-width: 1; stroke-dasharray: none; stroke-linecap: butt; stroke-dashoffset: 0; stroke-linejoin: miter; stroke-miterlimit: 4; fill: rgb(14,0,0); fill-rule: nonzero; opacity: 1;" vector-effect="non-scaling-stroke"  transform=" translate(-2220, -1317)" d="M 1700 1412 C 1700 1410 1708 1396 1718 1382 C 1729 1367 1754 1324 1775 1287 L 1812 1219 L 1830 1248 C 1880 1330 1996 1359 2102 1315 C 2114 1310 2123 1316 2134 1337 C 2171 1409 2289 1405 2320 1331 C 2332 1301 2332 1301 2358 1318 C 2376 1329 2404 1335 2445 1335 C 2515 1334 2573 1308 2614 1259 C 2629 1242 2642 1229 2643 1231 C 2659 1255 2740 1401 2740 1407 C 2740 1412 2506 1415 2220 1415 C 1934 1415 1700 1413 1700 1412 z M 1915 1369 C 1918 1366 1897 1349 1868 1331 L 1816 1298 L 1798 1320 C 1780 1342 1775 1362 1786 1372 C 1793 1379 1907 1376 1915 1369 z M 2663 1371 C 2676 1369 2670 1343 2651 1319 L 2632 1296 L 2599 1321 C 2580 1335 2556 1350 2545 1354 C 2513 1366 2544 1377 2603 1375 C 2631 1374 2658 1372 2663 1371 z" stroke-linecap="round" />
</g>
		<g transform="matrix(0.13 0 0 -0.13 98.54 29.76)"  >
<path style="stroke: none; stroke-width: 1; stroke-dasharray: none; stroke-linecap: butt; stroke-dashoffset: 0; stroke-linejoin: miter; stroke-miterlimit: 4; fill: rgb(14,0,0); fill-rule: nonzero; opacity: 1;" vector-effect="non-scaling-stroke"  transform=" translate(-2225.62, -1295.16)" d="M 2177 1342 C 2141 1302 2171 1230 2223 1230 C 2251 1230 2290 1268 2290 1296 C 2290 1307 2283 1326 2274 1338 C 2255 1366 2200 1368 2177 1342 z M 2260 1326 C 2280 1301 2268 1267 2235 1258 C 2202 1250 2188 1259 2183 1291 C 2176 1334 2232 1359 2260 1326 z" stroke-linecap="round" />
</g>
		<g transform="matrix(0.13 0 0 -0.13 97.1 82.8)"  >
<path style="stroke: none; stroke-width: 1; stroke-dasharray: none; stroke-linecap: butt; stroke-dashoffset: 0; stroke-linejoin: miter; stroke-miterlimit: 4; fill: rgb(14,0,0); fill-rule: nonzero; opacity: 1;" vector-effect="non-scaling-stroke"  transform=" translate(-2223.56, -888.53)" d="M 1985 1305 C 1980 1303 1963 1299 1947 1296 C 1911 1288 1840 1223 1823 1183 C 1793 1109 1823 1008 1896 938 C 1945 892 1976 880 2049 880 C 2099 880 2110 876 2133 852 C 2158 826 2159 822 2145 804 C 2133 788 2131 788 2130 801 C 2130 826 2096 850 2062 850 C 2024 850 2024 850 2050 808 C 2077 763 2075 750 2041 750 C 2016 750 2013 753 2018 775 C 2022 797 2019 800 1991 800 C 1956 800 1937 774 1961 759 C 1970 753 1956 750 1920 750 C 1889 750 1859 745 1852 738 C 1834 720 1838 683 1859 668 C 1872 658 1880 640 1882 610 C 1885 566 1886 565 1924 562 C 1948 560 1966 564 1971 572 C 1978 583 1980 583 1980 572 C 1980 562 2004 559 2085 561 C 2143 562 2194 560 2197 556 C 2201 553 2142 550 2066 550 C 1924 550 1890 542 1890 511 C 1890 471 1905 470 2245 472 C 2545 475 2574 477 2584 493 C 2592 505 2592 515 2584 528 C 2574 543 2551 546 2409 550 C 2234 556 2264 561 2470 561 C 2622 561 2629 565 2629 651 C 2628 703 2625 712 2602 731 C 2580 748 2566 751 2525 746 C 2488 741 2479 742 2493 750 C 2502 756 2510 770 2510 780 C 2510 796 2503 800 2480 800 C 2446 800 2428 774 2451 759 C 2461 753 2457 750 2438 750 C 2413 750 2410 754 2409 783 C 2407 823 2407 822 2415 843 C 2426 869 2363 866 2334 839 C 2301 808 2285 820 2315 853 C 2338 877 2348 880 2401 880 C 2473 880 2514 896 2557 941 C 2657 1048 2662 1170 2570 1254 C 2509 1309 2432 1321 2360 1285 C 2318 1263 2250 1187 2238 1148 L 2227 1111 L 2205 1158 C 2182 1206 2116 1275 2077 1289 C 2048 1300 1997 1308 1985 1305 z M 2526 1261 C 2579 1237 2594 1215 2543 1237 C 2452 1275 2351 1249 2293 1172 C 2258 1126 2251 1124 2274 1168 C 2307 1230 2384 1279 2450 1279 C 2469 1279 2504 1271 2526 1261 z M 2098 1233 C 2118 1217 2153 1177 2176 1145 L 2217 1087 L 2176 1066 C 2153 1054 2100 1018 2056 986 C 1966 918 1961 918 1918 996 C 1882 1061 1881 1125 1916 1200 C 1930 1230 1947 1258 1953 1263 C 1979 1280 2060 1264 2098 1233 z M 1891 1215 C 1838 1132 1842 1056 1902 970 C 1933 925 1933 925 1905 950 C 1872 980 1830 1064 1830 1103 C 1830 1141 1856 1199 1887 1233 C 1902 1248 1915 1260 1917 1260 C 1918 1260 1907 1240 1891 1215 z M 2532 1210 C 2603 1190 2619 1127 2575 1035 C 2551 983 2501 930 2476 930 C 2470 930 2426 959 2380 995 C 2333 1031 2282 1064 2266 1068 C 2250 1072 2235 1081 2233 1087 C 2229 1098 2351 1193 2391 1209 C 2423 1222 2487 1222 2532 1210 z M 2250 949 C 2250 941 2244 925 2236 915 C 2222 896 2221 896 2209 923 C 2199 945 2199 961 2210 1007 L 2224 1064 L 2237 1014 C 2244 987 2250 958 2250 949 z M 2192 1000 C 2179 958 2174 952 2161 963 C 2147 973 2147 973 2158 958 C 2166 949 2169 937 2167 933 C 2164 928 2171 913 2182 900 L 2202 875 L 2185 905 L 2168 935 L 2193 910 L 2218 885 L 2193 860 L 2169 835 L 2150 860 C 2119 902 2098 926 2105 913 C 2110 903 2097 900 2058 901 L 2005 901 L 2034 923 C 2050 935 2093 968 2129 997 C 2165 1025 2198 1049 2202 1049 C 2205 1050 2201 1028 2192 1000 z M 2337 983 C 2386 947 2429 913 2435 908 C 2440 904 2420 900 2391 900 C 2359 900 2341 904 2345 910 C 2348 916 2349 920 2346 920 C 2344 920 2325 897 2305 870 C 2270 822 2266 820 2224 822 L 2181 823 L 2217 864 C 2269 923 2276 929 2251 893 C 2239 875 2225 858 2220 855 C 2214 851 2210 844 2210 839 C 2210 823 2223 835 2260 886 C 2278 912 2288 930 2282 926 C 2264 915 2267 930 2288 954 C 2300 969 2301 971 2289 963 C 2276 952 2271 958 2258 1000 C 2249 1028 2244 1050 2246 1050 C 2248 1050 2289 1020 2337 983 z M 2115 800 C 2118 795 2116 790 2111 790 C 2105 790 2099 778 2099 763 L 2097 735 L 2093 763 C 2091 778 2084 790 2079 790 C 2073 790 2072 795 2075 800 C 2078 806 2087 810 2095 810 C 2103 810 2112 806 2115 800 z M 2198 745 C 2196 743 2183 744 2168 747 C 2141 752 2139 767 2164 799 C 2172 810 2177 806 2188 780 C 2195 762 2200 746 2198 745 z M 2390 800 C 2390 795 2384 790 2378 790 C 2369 790 2370 786 2380 780 C 2393 771 2393 770 2380 770 C 2367 770 2367 769 2380 760 C 2398 749 2387 735 2365 743 C 2350 749 2344 791 2357 803 C 2367 814 2390 811 2390 800 z M 2267 775 C 2266 761 2262 750 2257 750 C 2253 750 2243 750 2235 750 C 2226 750 2220 759 2220 775 C 2220 795 2225 800 2244 800 C 2264 800 2268 795 2267 775 z M 2250 649 C 2250 584 2249 580 2227 580 C 2211 580 2197 591 2182 618 L 2160 655 L 2160 618 C 2160 585 2157 580 2137 580 C 2114 580 2113 583 2114 650 C 2115 718 2116 720 2140 720 C 2158 720 2171 710 2187 682 L 2209 645 L 2210 687 C 2210 723 2212 727 2230 723 C 2248 718 2250 709 2250 649 z M 2580 720 C 2585 720 2594 710 2601 699 C 2612 678 2611 677 2576 683 C 2531 690 2530 680 2573 660 C 2629 634 2617 580 2554 580 C 2521 580 2485 604 2495 620 C 2498 625 2512 625 2526 620 C 2557 608 2560 608 2560 619 C 2560 624 2547 633 2531 640 C 2499 653 2487 671 2497 696 C 2504 714 2539 731 2558 724 C 2566 722 2576 720 2580 720 z M 1990 705 C 1990 697 1981 690 1970 690 C 1952 690 1950 683 1950 635 C 1950 585 1948 580 1928 580 C 1906 580 1905 584 1908 635 C 1912 685 1910 690 1891 690 C 1879 690 1870 696 1870 705 C 1870 717 1883 720 1930 720 C 1977 720 1990 717 1990 705 z M 2100 705 C 2100 696 2091 690 2076 690 C 2062 690 2048 686 2045 680 C 2041 674 2050 670 2064 670 C 2083 670 2090 665 2090 652 C 2090 641 2083 634 2073 634 C 2063 635 2054 631 2053 625 C 2051 620 2060 615 2073 615 C 2086 615 2096 607 2098 597 C 2101 583 2093 580 2051 580 L 2000 580 L 2000 650 L 2000 720 L 2050 720 C 2088 720 2100 716 2100 705 z M 2340 690 C 2359 644 2373 641 2368 684 C 2364 716 2366 720 2387 720 C 2409 720 2410 716 2410 650 C 2410 584 2409 580 2387 580 C 2371 580 2357 591 2342 618 L 2320 655 L 2320 618 C 2320 584 2317 580 2295 580 C 2271 580 2270 582 2270 650 L 2270 720 L 2299 720 C 2321 720 2330 714 2340 690 z M 2480 650 C 2480 582 2479 580 2455 580 C 2431 580 2430 582 2430 650 C 2430 718 2431 720 2455 720 C 2479 720 2480 718 2480 650 z M 1998 513 C 1996 503 1988 495 1980 495 C 1972 495 1964 503 1962 513 C 1960 525 1965 530 1980 530 C 1995 530 2000 525 1998 513 z M 2052 507 C 2049 493 2045 490 2042 499 C 2039 509 2036 509 2030 500 C 2025 492 2021 495 2018 508 C 2014 523 2018 528 2035 528 C 2053 528 2056 523 2052 507 z M 2104 514 C 2107 505 2110 497 2110 496 C 2110 495 2101 494 2090 494 C 2070 494 2063 510 2077 523 C 2088 534 2097 531 2104 514 z M 2170 510 C 2170 488 2127 489 2122 511 C 2120 523 2126 528 2145 528 C 2162 528 2170 522 2170 510 z M 2305 510 C 2305 488 2276 492 2272 513 C 2269 527 2273 531 2287 528 C 2297 526 2305 518 2305 510 z M 2360 510 C 2360 501 2351 494 2340 493 C 2327 492 2320 497 2320 510 C 2320 523 2327 528 2340 527 C 2351 526 2360 519 2360 510 z M 2407 510 C 2408 499 2403 490 2394 490 C 2386 490 2380 499 2380 510 C 2380 521 2386 530 2393 530 C 2400 530 2406 521 2407 510 z M 2460 505 C 2460 489 2458 488 2450 500 C 2443 511 2440 511 2440 502 C 2440 495 2436 492 2430 495 C 2412 506 2419 529 2440 527 C 2453 526 2460 519 2460 505 z" stroke-linecap="round" />
</g>
		<g transform="matrix(0.13 0 0 -0.13 -96.07 111.95)"  >
<path style="stroke: none; stroke-width: 1; stroke-dasharray: none; stroke-linecap: butt; stroke-dashoffset: 0; stroke-linejoin: miter; stroke-miterlimit: 4; fill: rgb(14,0,0); fill-rule: nonzero; opacity: 1;" vector-effect="non-scaling-stroke"  transform=" translate(-764.96, -679.58)" d="M 747 698 C 751 691 753 677 752 668 C 750 658 754 650 759 650 C 765 650 770 661 770 674 C 770 687 776 701 783 703 C 789 706 782 709 767 709 C 747 710 741 706 747 698 z" stroke-linecap="round" />
</g>
		<g transform="matrix(0.13 0 0 -0.13 -86.41 111.8)"  >
<path style="stroke: none; stroke-width: 1; stroke-dasharray: none; stroke-linecap: butt; stroke-dashoffset: 0; stroke-linejoin: miter; stroke-miterlimit: 4; fill: rgb(14,0,0); fill-rule: nonzero; opacity: 1;" vector-effect="non-scaling-stroke"  transform=" translate(-837.54, -680.82)" d="M 822 685 C 807 652 806 653 839 653 C 866 653 867 655 858 682 C 846 717 837 717 822 685 z" stroke-linecap="round" />
</g>
		<g transform="matrix(0.13 0 0 -0.13 -76.08 111.9)"  >
<path style="stroke: none; stroke-width: 1; stroke-dasharray: none; stroke-linecap: butt; stroke-dashoffset: 0; stroke-linejoin: miter; stroke-miterlimit: 4; fill: rgb(14,0,0); fill-rule: nonzero; opacity: 1;" vector-effect="non-scaling-stroke"  transform=" translate(-915, -680)" d="M 890 680 C 890 655 894 650 915 650 C 936 650 940 655 940 680 C 940 705 936 710 915 710 C 894 710 890 705 890 680 z" stroke-linecap="round" />
</g>
		<g transform="matrix(0.13 0 0 -0.13 -58.21 111.91)"  >
<path style="stroke: none; stroke-width: 1; stroke-dasharray: none; stroke-linecap: butt; stroke-dashoffset: 0; stroke-linejoin: miter; stroke-miterlimit: 4; fill: rgb(14,0,0); fill-rule: nonzero; opacity: 1;" vector-effect="non-scaling-stroke"  transform=" translate(-1048.82, -680)" d="M 1030 680 C 1030 655 1034 650 1053 651 C 1072 652 1072 653 1056 657 C 1041 661 1040 664 1051 671 C 1063 679 1063 681 1051 689 C 1040 696 1041 699 1056 703 C 1072 707 1072 708 1053 709 C 1034 710 1030 705 1030 680 z" stroke-linecap="round" />
</g>
		<g transform="matrix(0.13 0 0 -0.13 -119.53 128.42)"  >
<path style="stroke: none; stroke-width: 1; stroke-dasharray: none; stroke-linecap: butt; stroke-dashoffset: 0; stroke-linejoin: miter; stroke-miterlimit: 4; fill: rgb(14,0,0); fill-rule: nonzero; opacity: 1;" vector-effect="non-scaling-stroke"  transform=" translate(-590, -555)" d="M 530 610 C 530 597 537 590 550 590 C 568 590 570 583 570 535 C 570 484 572 480 593 480 C 615 480 616 483 612 535 C 608 586 609 590 629 590 C 643 590 650 596 650 610 C 650 628 643 630 590 630 C 537 630 530 628 530 610 z" stroke-linecap="round" />
</g>
		<g transform="matrix(0.13 0 0 -0.13 -102.84 128.42)"  >
<path style="stroke: none; stroke-width: 1; stroke-dasharray: none; stroke-linecap: butt; stroke-dashoffset: 0; stroke-linejoin: miter; stroke-miterlimit: 4; fill: rgb(14,0,0); fill-rule: nonzero; opacity: 1;" vector-effect="non-scaling-stroke"  transform=" translate(-714.93, -555)" d="M 668 555 L 665 480 L 717 480 C 759 480 768 483 764 495 C 760 503 747 510 734 510 C 719 510 710 516 710 525 C 710 534 719 540 735 540 C 751 540 760 546 760 555 C 760 564 751 570 735 570 C 721 570 710 575 710 580 C 710 586 721 590 735 590 C 753 590 760 595 760 610 C 760 627 753 630 716 630 L 672 630 L 668 555 z" stroke-linecap="round" />
</g>
		<g transform="matrix(0.13 0 0 -0.13 -84.9 128.42)"  >
<path style="stroke: none; stroke-width: 1; stroke-dasharray: none; stroke-linecap: butt; stroke-dashoffset: 0; stroke-linejoin: miter; stroke-miterlimit: 4; fill: rgb(14,0,0); fill-rule: nonzero; opacity: 1;" vector-effect="non-scaling-stroke"  transform=" translate(-850, -555)" d="M 780 555 C 780 482 781 480 805 480 C 827 480 830 484 830 518 L 830 555 L 852 518 C 867 491 881 480 897 480 C 919 480 920 483 920 555 C 920 623 918 630 900 630 C 883 630 880 623 880 588 L 879 545 L 854 588 C 835 619 822 630 804 630 C 781 630 780 627 780 555 z" stroke-linecap="round" />
</g>
		<g transform="matrix(0.13 0 0 -0.13 -62.45 128.42)"  >
<path style="stroke: none; stroke-width: 1; stroke-dasharray: none; stroke-linecap: butt; stroke-dashoffset: 0; stroke-linejoin: miter; stroke-miterlimit: 4; fill: rgb(14,0,0); fill-rule: nonzero; opacity: 1;" vector-effect="non-scaling-stroke"  transform=" translate(-1018.38, -555)" d="M 948 555 C 945 483 946 480 967 480 C 985 480 989 487 992 518 L 995 555 L 1017 518 C 1033 490 1046 480 1065 480 C 1090 480 1090 481 1090 555 C 1090 628 1089 630 1065 630 C 1042 630 1040 626 1040 588 L 1040 545 L 1014 588 C 999 613 981 630 970 630 C 954 630 951 620 948 555 z" stroke-linecap="round" />
</g>
		<g transform="matrix(0.13 0 0 -0.13 -47.19 128.42)"  >
<path style="stroke: none; stroke-width: 1; stroke-dasharray: none; stroke-linecap: butt; stroke-dashoffset: 0; stroke-linejoin: miter; stroke-miterlimit: 4; fill: rgb(14,0,0); fill-rule: nonzero; opacity: 1;" vector-effect="non-scaling-stroke"  transform=" translate(-1131.63, -555)" d="M 1110 555 C 1110 484 1111 480 1133 480 C 1154 480 1155 483 1152 555 C 1149 621 1146 630 1129 630 C 1112 630 1110 622 1110 555 z" stroke-linecap="round" />
</g>
		<g transform="matrix(0.13 0 0 -0.13 -34.14 128.49)"  >
<path style="stroke: none; stroke-width: 1; stroke-dasharray: none; stroke-linecap: butt; stroke-dashoffset: 0; stroke-linejoin: miter; stroke-miterlimit: 4; fill: rgb(14,0,0); fill-rule: nonzero; opacity: 1;" vector-effect="non-scaling-stroke"  transform=" translate(-1230.44, -554.52)" d="M 1186 611 C 1162 585 1173 554 1210 541 C 1227 536 1240 526 1240 521 C 1240 508 1242 508 1202 519 C 1167 529 1165 528 1180 499 C 1188 485 1201 480 1229 480 C 1297 480 1312 532 1253 560 C 1210 580 1211 590 1255 583 C 1296 576 1301 591 1268 614 C 1238 635 1207 634 1186 611 z" stroke-linecap="round" />
</g>
		<g transform="matrix(0.13 0 0 -0.13 -111.12 145.24)"  >
<path style="stroke: none; stroke-width: 1; stroke-dasharray: none; stroke-linecap: butt; stroke-dashoffset: 0; stroke-linejoin: miter; stroke-miterlimit: 4; fill: rgb(14,0,0); fill-rule: nonzero; opacity: 1;" vector-effect="non-scaling-stroke"  transform=" translate(-652.02, -430.19)" d="M 637 444 C 628 434 641 410 656 410 C 664 410 670 419 670 430 C 670 449 651 457 637 444 z" stroke-linecap="round" />
</g>
		<g transform="matrix(0.13 0 0 -0.13 -96.79 145.16)"  >
<path style="stroke: none; stroke-width: 1; stroke-dasharray: none; stroke-linecap: butt; stroke-dashoffset: 0; stroke-linejoin: miter; stroke-miterlimit: 4; fill: rgb(14,0,0); fill-rule: nonzero; opacity: 1;" vector-effect="non-scaling-stroke"  transform=" translate(-759.5, -430.89)" d="M 747 443 C 733 430 740 414 760 413 C 782 411 783 412 774 434 C 767 451 758 454 747 443 z" stroke-linecap="round" />
</g>
		<g transform="matrix(0.13 0 0 -0.13 -89.41 145.28)"  >
<path style="stroke: none; stroke-width: 1; stroke-dasharray: none; stroke-linecap: butt; stroke-dashoffset: 0; stroke-linejoin: miter; stroke-miterlimit: 4; fill: rgb(14,0,0); fill-rule: nonzero; opacity: 1;" vector-effect="non-scaling-stroke"  transform=" translate(-815, -429.93)" d="M 790 431 C 790 420 799 414 815 412 C 833 411 840 415 840 429 C 840 442 833 448 815 448 C 798 448 790 442 790 431 z" stroke-linecap="round" />
</g>
		<g transform="matrix(0.13 0 0 -0.13 -82.81 145.11)"  >
<path style="stroke: none; stroke-width: 1; stroke-dasharray: none; stroke-linecap: butt; stroke-dashoffset: 0; stroke-linejoin: miter; stroke-miterlimit: 4; fill: rgb(14,0,0); fill-rule: nonzero; opacity: 1;" vector-effect="non-scaling-stroke"  transform=" translate(-864.22, -431.27)" d="M 850 429 C 850 405 873 408 878 433 C 880 443 875 450 866 450 C 856 450 850 441 850 429 z" stroke-linecap="round" />
</g>
		<g transform="matrix(0.13 0 0 -0.13 -71.65 145)"  >
<path style="stroke: none; stroke-width: 1; stroke-dasharray: none; stroke-linecap: butt; stroke-dashoffset: 0; stroke-linejoin: miter; stroke-miterlimit: 4; fill: rgb(14,0,0); fill-rule: nonzero; opacity: 1;" vector-effect="non-scaling-stroke"  transform=" translate(-948.03, -432.1)" d="M 932 433 C 936 412 965 408 965 430 C 965 438 957 446 947 448 C 933 451 929 447 932 433 z" stroke-linecap="round" />
</g>
		<g transform="matrix(0.13 0 0 -0.13 -64.73 145.08)"  >
<path style="stroke: none; stroke-width: 1; stroke-dasharray: none; stroke-linecap: butt; stroke-dashoffset: 0; stroke-linejoin: miter; stroke-miterlimit: 4; fill: rgb(14,0,0); fill-rule: nonzero; opacity: 1;" vector-effect="non-scaling-stroke"  transform=" translate(-1000, -431.44)" d="M 980 432 C 980 421 988 414 1000 413 C 1014 412 1020 417 1020 431 C 1020 443 1013 450 1000 450 C 987 450 980 443 980 432 z" stroke-linecap="round" />
</g>
</g>
</g>
</svg>